<?xml version="1.0" standalone="no"?>
<!DOCTYPE svg PUBLIC "-//W3C//DTD SVG 20010904//EN"
 "http://www.w3.org/TR/2001/REC-SVG-20010904/DTD/svg10.dtd">
<svg version="1.0" xmlns="http://www.w3.org/2000/svg"
 width="500.000000pt" height="500.000000pt" viewBox="0 0 500.000000 500.000000"
 preserveAspectRatio="xMidYMid meet">
<metadata>
Created by potrace 1.14, written by Peter Selinger 2001-2017
</metadata>
<g transform="translate(0.000000,500.000000) scale(0.100000,-0.100000)"
fill="#000000" stroke="none">
<path d="M3475 4795 c-261 -49 -434 -216 -501 -481 -17 -69 -17 -72 2 -109 30
-57 62 -77 122 -77 67 0 113 29 141 87 14 30 28 98 41 202 11 87 20 163 20
169 0 20 116 64 198 75 210 30 389 -56 453 -219 19 -47 23 -77 23 -172 1 -135
-17 -199 -88 -320 -102 -172 -242 -322 -761 -813 -209 -198 -392 -372 -407
-386 -22 -21 -32 -47 -51 -138 l-24 -113 662 0 663 0 6 26 c13 51 46 217 46
230 0 12 -86 14 -540 14 l-541 0 178 162 c98 88 293 263 433 387 421 372 555
511 629 651 156 295 66 644 -201 774 -125 61 -336 82 -503 51z"/>
<path d="M1035 2763 c10 -1079 10 -1568 1 -1931 l-8 -322 796 0 796 0 0 23 c1
12 7 87 14 167 12 125 12 148 0 168 l-14 22 -574 0 -573 0 -8 275 c-7 269 -1
1411 11 2028 l6 307 -227 0 -227 0 7 -737z"/>
</g>
</svg>
